<!-- Generated by IcoMoon.io -->
<svg version="1.1" xmlns="http://www.w3.org/2000/svg" width="31" height="31" viewBox="0 0 31 31">
<title>gift</title>
<path d="M23.356 9.688c0.549-0.39 1.075-0.824 1.557-1.306 1.011-1.011 1.688-2.255 1.905-3.503 0.238-1.368-0.111-2.638-0.958-3.484-0.675-0.675-1.59-1.032-2.645-1.032-1.503 0-3.086 0.721-4.343 1.979-2.012 2.012-3.186 4.79-3.817 6.773-0.467-1.992-1.399-4.682-3.21-6.492-0.972-0.972-2.213-1.47-3.386-1.47-0.958 0-1.87 0.333-2.551 1.014-1.513 1.513-1.309 4.171 0.457 5.937 0.629 0.629 1.365 1.152 2.141 1.587h-6.57v7.75h1.938v13.563h23.25v-13.563h1.938v-7.75h-5.706zM20.414 3.882c0.839-0.839 1.887-1.34 2.802-1.34 0.324 0 0.778 0.068 1.103 0.393 0.788 0.788 0.345 2.613-0.947 3.905-1.33 1.33-3.12 2.245-4.675 2.848h-1.534c0.562-1.742 1.576-4.131 3.251-5.806zM7.082 4.871c-0.021-0.276-0.002-0.795 0.369-1.165 0.31-0.31 0.72-0.375 1.010-0.375v0c0.644 0 1.316 0.303 1.845 0.832 1.025 1.025 1.87 2.657 2.442 4.719 0.015 0.056 0.031 0.111 0.045 0.166-0.055-0.015-0.11-0.030-0.166-0.045-2.062-0.572-3.693-1.417-4.719-2.442-0.479-0.479-0.78-1.095-0.826-1.689zM13.563 29.063h-7.75v-12.594h7.75v12.594zM13.563 15.5h-9.688v-3.875h9.688v3.875zM25.188 29.063h-7.75v-12.594h7.75v12.594zM27.125 15.5h-9.688v-3.875h9.688v3.875z"></path>
</svg>
